<?xml version="1.0" standalone="no"?>
<!DOCTYPE svg PUBLIC "-//W3C//DTD SVG 20010904//EN"
 "http://www.w3.org/TR/2001/REC-SVG-20010904/DTD/svg10.dtd">
<svg version="1.0" xmlns="http://www.w3.org/2000/svg"
 width="500.000000pt" height="500.000000pt" viewBox="0 0 500.000000 500.000000"
 preserveAspectRatio="xMidYMid meet">
<metadata>
Created by potrace 1.15, written by Peter Selinger 2001-2017
</metadata>
<g transform="translate(0.000000,500.000000) scale(0.100000,-0.100000)"
fill="#000000" stroke="none">
<path d="M2456 3670 c-72 -22 -116 -105 -96 -179 12 -45 64 -96 108 -106 74
-16 163 44 177 119 14 70 -35 146 -106 166 -39 11 -44 11 -83 0z m61 -25 c-2
-5 -13 -14 -25 -20 -30 -14 -27 -22 7 -21 16 1 27 4 24 9 -2 4 2 7 10 7 8 0
20 -14 26 -31 8 -24 15 -30 28 -24 34 13 38 10 41 -37 3 -42 -1 -51 -32 -85
-33 -36 -38 -38 -95 -38 -55 0 -64 3 -92 32 -25 24 -33 42 -36 80 -5 57 10 89
55 120 33 22 95 28 89 8z"/>
<path d="M3243 2143 c-24 -9 -15 -59 13 -73 21 -12 27 -12 34 0 7 11 11 11 23
1 10 -8 17 -9 22 -1 3 5 11 10 17 10 6 0 3 -9 -7 -20 -14 -16 -21 -17 -32 -8
-11 9 -16 9 -23 -1 -5 -8 -16 -11 -30 -6 -16 5 -21 4 -18 -6 3 -8 23 -15 49
-17 68 -4 70 -6 55 -43 -7 -18 -24 -38 -37 -45 -24 -13 -24 -13 8 -14 37 0 81
15 105 37 15 13 15 18 4 35 -10 14 -11 30 -4 64 8 36 7 50 -6 69 -15 23 -23
25 -89 24 -39 0 -78 -3 -84 -6z"/>
<path d="M3475 1883 c-27 -19 -52 -39 -54 -45 -2 -5 8 -22 23 -37 24 -25 25
-28 10 -49 -8 -12 -21 -22 -29 -22 -8 0 -17 -4 -20 -10 -4 -6 9 -10 30 -10 28
0 36 4 32 14 -3 8 3 22 14 32 10 9 19 27 19 39 0 32 8 35 47 18 39 -16 77 -7
107 26 14 16 13 17 -20 13 -29 -4 -40 1 -69 32 -18 20 -35 36 -37 35 -2 -1
-25 -17 -53 -36z"/>
</g>
</svg>
